<?xml version="1.0" encoding="UTF-8"?><svg xmlns="http://www.w3.org/2000/svg" xmlns:xlink="http://www.w3.org/1999/xlink" fill-opacity="1" color-rendering="auto" color-interpolation="auto" text-rendering="auto" stroke="black" stroke-linecap="square" width="296" stroke-miterlimit="10" shape-rendering="auto" stroke-opacity="1" fill="black" stroke-dasharray="none" font-weight="normal" stroke-width="1" height="371" font-family="'Dialog'" font-style="normal" stroke-linejoin="miter" font-size="12px" stroke-dashoffset="0" image-rendering="auto">
  <!--Generated by ySVG 2.5-->
  <defs id="genericDefs"/>
  <g>
    <defs id="defs1">
      <clipPath clipPathUnits="userSpaceOnUse" id="clipPath1">
        <path d="M0 0 L296 0 L296 371 L0 371 L0 0 Z"/>
      </clipPath>
      <clipPath clipPathUnits="userSpaceOnUse" id="clipPath2">
        <path d="M369 153 L665 153 L665 524 L369 524 L369 153 Z"/>
      </clipPath>
    </defs>
    <g fill="white" text-rendering="geometricPrecision" shape-rendering="geometricPrecision" transform="translate(-369,-153)" stroke="white">
      <rect x="369" width="296" height="371" y="153" clip-path="url(#clipPath2)" stroke="none"/>
    </g>
    <g fill="rgb(255,204,0)" text-rendering="geometricPrecision" shape-rendering="geometricPrecision" transform="matrix(1,0,0,1,-369,-153)" stroke="rgb(255,204,0)">
      <circle r="15" clip-path="url(#clipPath2)" cx="529" cy="352" stroke="none"/>
    </g>
    <g text-rendering="geometricPrecision" stroke-miterlimit="1.45" shape-rendering="geometricPrecision" transform="matrix(1,0,0,1,-369,-153)" stroke-linecap="butt">
      <circle fill="none" r="15" clip-path="url(#clipPath2)" cx="529" cy="352"/>
    </g>
    <g fill="rgb(255,204,0)" text-rendering="geometricPrecision" shape-rendering="geometricPrecision" transform="matrix(1,0,0,1,-369,-153)" stroke="rgb(255,204,0)">
      <circle r="15" clip-path="url(#clipPath2)" cx="529" cy="183" stroke="none"/>
    </g>
    <g text-rendering="geometricPrecision" stroke-miterlimit="1.45" shape-rendering="geometricPrecision" transform="matrix(1,0,0,1,-369,-153)" stroke-linecap="butt">
      <circle fill="none" r="15" clip-path="url(#clipPath2)" cx="529" cy="183"/>
    </g>
    <g fill="rgb(255,204,0)" text-rendering="geometricPrecision" shape-rendering="geometricPrecision" transform="matrix(1,0,0,1,-369,-153)" stroke="rgb(255,204,0)">
      <circle r="15" clip-path="url(#clipPath2)" cx="446" cy="276" stroke="none"/>
    </g>
    <g text-rendering="geometricPrecision" stroke-miterlimit="1.45" shape-rendering="geometricPrecision" transform="matrix(1,0,0,1,-369,-153)" stroke-linecap="butt">
      <circle fill="none" r="15" clip-path="url(#clipPath2)" cx="446" cy="276"/>
    </g>
    <g fill="rgb(255,204,0)" text-rendering="geometricPrecision" shape-rendering="geometricPrecision" transform="matrix(1,0,0,1,-369,-153)" stroke="rgb(255,204,0)">
      <circle r="15" clip-path="url(#clipPath2)" cx="529" cy="494" stroke="none"/>
    </g>
    <g text-rendering="geometricPrecision" stroke-miterlimit="1.45" shape-rendering="geometricPrecision" transform="matrix(1,0,0,1,-369,-153)" stroke-linecap="butt">
      <circle fill="none" r="15" clip-path="url(#clipPath2)" cx="529" cy="494"/>
      <text x="466.5859" xml:space="preserve" y="188.1006" clip-path="url(#clipPath2)" font-family="'Meiryo UI'" stroke="none">マージ</text>
      <text x="570.7002" xml:space="preserve" y="189.4805" clip-path="url(#clipPath2)" font-family="'Meiryo UI'" stroke="none">masterブランチ</text>
      <text x="386.2607" xml:space="preserve" y="332.1006" clip-path="url(#clipPath2)" font-family="'Meiryo UI'" stroke="none">featureブランチ</text>
      <path fill="none" d="M529 337 L529 206" clip-path="url(#clipPath2)"/>
      <path d="M529 198 L524 210 L529 207 L534 210 Z" clip-path="url(#clipPath2)" stroke="none"/>
      <path fill="none" d="M517.9371 341.8702 L462.963 291.5324" clip-path="url(#clipPath2)"/>
      <path d="M457.0628 286.1298 L462.5365 297.9213 L463.7005 292.2077 L469.2897 290.5461 Z" clip-path="url(#clipPath2)" stroke="none"/>
      <path fill="none" d="M455.9879 264.8088 L513.6853 200.1598" clip-path="url(#clipPath2)"/>
      <path d="M519.0121 194.1912 L507.2915 199.8149 L513.0195 200.9059 L514.7523 206.4734 Z" clip-path="url(#clipPath2)" stroke="none"/>
      <path fill="none" d="M529 479 L529 375" clip-path="url(#clipPath2)"/>
      <path d="M529 367 L524 379 L529 376 L534 379 Z" clip-path="url(#clipPath2)" stroke="none"/>
    </g>
  </g>
</svg>
